<svg width="100" height="100" viewBox="0 0 100 100" fill="none" xmlns="http://www.w3.org/2000/svg">
<rect width="100" height="100" rx="8" fill="white"/>
<path d="M21.1567 33.5811L14 47.8945H27.8363L20.6796 33.5811H21.1567Z" fill="black"/>
<path d="M71.4935 18.0735C70.0621 15.4494 68.1537 14.018 65.291 14.018C62.4283 14.018 59.8042 15.6879 58.3728 18.5506L50.5004 36.2039L40.9581 18.0735C39.5268 15.4494 37.6183 14.018 34.7556 14.018C31.4158 13.7795 28.5531 15.9265 27.3604 19.2663L39.0497 42.6449C40.7196 45.5076 43.5823 47.8932 47.8763 47.8932H56.2258L51.2161 37.3967C51.9318 34.534 54.5559 31.4327 58.6114 31.4327C61.9512 31.4327 64.5753 33.1026 66.0067 35.9653L69.1079 41.9293C71.0164 45.7462 74.3562 47.8932 77.9345 47.8932H86.5226L71.4935 18.0735Z" fill="black"/>
<path d="M61.9531 59.1075C60.5218 56.2448 57.4205 53.1436 53.3651 53.1436H44.777L50.2638 63.6401C49.071 66.9799 46.2083 69.3655 42.1529 69.3655C39.0516 69.3655 36.4275 67.6956 34.9961 64.8329L31.8949 58.8689C29.9864 56.0062 27.3623 53.1436 23.0683 53.1436H14.7188L29.2708 82.4861C30.7021 85.3488 33.0877 86.7802 35.9504 86.7802C38.8131 86.7802 40.9601 85.3488 42.3914 82.4861L50.7409 64.5943L59.8061 82.7247C61.2375 85.3488 63.1459 86.7802 66.2472 86.7802C69.3484 87.0187 72.4497 85.1103 73.1653 81.7705L61.9531 59.1075Z" fill="black"/>
<path d="M72.6865 53.1436L80.0818 67.2184L87 53.1436H72.6865Z" fill="black"/>
</svg>
